<?xml version="1.0" encoding="UTF-8"?>
<svg width="41px" height="44px" viewBox="0 0 41 44" version="1.1" xmlns="http://www.w3.org/2000/svg" xmlns:xlink="http://www.w3.org/1999/xlink">
    <!-- Generator: Sketch 64 (93537) - https://sketch.com -->
    <title>Artboard Copy</title>
    <desc>Created with Sketch.</desc>
    <g id="Artboard-Copy" stroke="none" stroke-width="1" fill="none" fill-rule="evenodd">
        <g id="burger-(1)" transform="translate(1.000000, 2.000000)" fill="#000000" fill-rule="nonzero">
            <path d="M36.9016703,14.4607509 C35.15042,6.09556314 27.6265295,0 19,0 C10.4383316,0 2.91444115,6.09556314 1.09832967,14.4607509 C0.838885167,15.5631399 1.09832967,16.7303754 1.81180203,17.6382253 C2.59013553,18.4812287 3.62791352,19 4.73055263,19 L33.3343085,19 C34.4369476,19 35.4747256,18.4812287 36.188198,17.6382253 C36.9016703,16.7303754 37.1611148,15.6279863 36.9016703,14.4607509 Z M35.2801422,16.7952218 C34.8261144,17.3788396 34.1775031,17.7030717 33.3991696,17.7030717 L4.73055263,17.7030717 C4.01708026,17.7030717 3.30360789,17.3788396 2.84958002,16.7952218 C2.39555215,16.2116041 2.20096878,15.4982935 2.39555215,14.7201365 C4.08194139,6.93856655 11.0869428,1.29692833 19.0648611,1.29692833 C27.0427794,1.29692833 34.0477809,6.93856655 35.7341701,14.7201365 C35.8638923,15.4334471 35.7341701,16.2116041 35.2801422,16.7952218 Z" id="Shape"></path>
            <path d="M36.188198,29.382199 C35.4098645,28.5026178 34.3720865,28 33.2694474,28 L4.66569151,28 C3.56305239,28 2.5252744,28.5026178 1.81180203,29.3193717 C1.09832967,30.1989529 0.838885167,31.2670157 1.09832967,32.3979058 C2.65499665,39.3089005 8.16819222,40 14.9137492,40 C15.7569438,40 16.6649995,40 17.5081941,40 L19,40 C19.7783335,40 20.4918059,40 21.2052782,40 C28.7291687,40 35.2152811,40 36.9016703,32.460733 C37.1611148,31.3926702 36.9016703,30.2617801 36.188198,29.382199 Z M35.6044478,32.1465969 C34.1775031,38.6806283 28.7291687,38.6806283 21.2052782,38.6806283 C20.4918059,38.6806283 19.7134724,38.6806283 19,38.6806283 L17.5081941,38.6806283 C9.85458146,38.8062827 3.88735801,38.8691099 2.33069103,32.0837696 C2.20096878,31.3926702 2.33069103,30.6387435 2.84958002,30.0732984 C3.30360789,29.5078534 3.95221914,29.1937173 4.73055263,29.1937173 L33.3343085,29.1937173 C34.0477809,29.1937173 34.7612532,29.5078534 35.2152811,30.0732984 C35.6044478,30.7015707 35.7990312,31.4554974 35.6044478,32.1465969 Z" id="Shape"></path>
            <path d="M38.3532338,21.6046512 C37.7711443,21.6046512 37.5124378,21.3255814 37.0597015,20.9767442 C36.6069652,20.5581395 36.0248756,20 34.9253731,20 C33.8258706,20 33.2437811,20.5581395 32.7910448,20.9767442 C32.4029851,21.3255814 32.1442786,21.6046512 31.4975124,21.6046512 C30.9154229,21.6046512 30.6567164,21.3255814 30.2039801,20.9767442 C29.7512438,20.5581395 29.1691542,20 28.0696517,20 C26.9701493,20 26.3880597,20.5581395 25.9353234,20.9767442 C25.5472637,21.3255814 25.2885572,21.6046512 24.641791,21.6046512 C24.0597015,21.6046512 23.800995,21.3255814 23.3482587,20.9767442 C22.8955224,20.5581395 22.3134328,20 21.2139303,20 C20.1144279,20 19.5323383,20.5581395 19.079602,20.9767442 C18.6915423,21.3255814 18.4328358,21.6046512 17.7860697,21.6046512 C17.1393035,21.6046512 16.9452736,21.3255814 16.4925373,20.9767442 C16.039801,20.5581395 15.4577114,20 14.358209,20 C13.2587065,20 12.6766169,20.5581395 12.2238806,20.9767442 C11.8358209,21.3255814 11.5771144,21.6046512 10.9303483,21.6046512 C10.3482587,21.6046512 10.0895522,21.3255814 9.63681592,20.9767442 C9.1840796,20.5581395 8.60199005,20 7.50248756,20 C6.40298507,20 5.82089552,20.5581395 5.3681592,20.9767442 C4.9800995,21.3255814 4.72139303,21.6046512 4.07462687,21.6046512 C3.49253731,21.6046512 3.23383085,21.3255814 2.78109453,20.9767442 C2.32835821,20.5581395 1.74626866,20 0.646766169,20 C0.258706468,20 0,20.2790698 0,20.6976744 C0,21.1162791 0.388059701,21.3953488 0.711442786,21.3953488 C1.29353234,21.3953488 1.55223881,21.6744186 2.00497512,22.0232558 C2.45771144,22.4418605 3.039801,23 4.13930348,23 C5.23880597,23 5.82089552,22.4418605 6.27363184,22.0232558 C6.66169154,21.6744186 6.92039801,21.3953488 7.50248756,21.3953488 C8.08457711,21.3953488 8.34328358,21.6744186 8.7960199,22.0232558 C9.24875622,22.4418605 9.83084577,23 10.9303483,23 C12.0298507,23 12.6119403,22.4418605 13.0646766,22.0232558 C13.4527363,21.6744186 13.7114428,21.3953488 14.358209,21.3953488 C15.0049751,21.3953488 15.199005,21.6744186 15.6517413,22.0232558 C16.1044776,22.4418605 16.6865672,23 17.7860697,23 C18.8855721,23 19.4676617,22.4418605 19.920398,22.0232558 C20.3084577,21.6744186 20.5671642,21.3953488 21.2139303,21.3953488 C21.7960199,21.3953488 22.0547264,21.6744186 22.5074627,22.0232558 C22.960199,22.4418605 23.5422886,23 24.641791,23 C25.7412935,23 26.3233831,22.4418605 26.7761194,22.0232558 C27.1641791,21.6744186 27.4228856,21.3953488 28.0696517,21.3953488 C28.6517413,21.3953488 28.9104478,21.6744186 29.3631841,22.0232558 C29.8159204,22.4418605 30.39801,23 31.4975124,23 C32.5970149,23 33.1791045,22.4418605 33.6318408,22.0232558 C34.0199005,21.6744186 34.278607,21.3953488 34.9253731,21.3953488 C35.5721393,21.3953488 35.7661692,21.6744186 36.2189055,22.0232558 C36.6716418,22.4418605 37.2537313,23 38.3532338,23 C38.7412935,23 39,22.7209302 39,22.3023256 C39,21.8837209 38.7412935,21.6046512 38.3532338,21.6046512 Z" id="Path"></path>
            <path d="M37.3613445,24 L0.638655462,24 C0.255462185,24 0,24.2 0,24.5 C0,24.8 0.255462185,25 0.638655462,25 L37.3613445,25 C37.7445378,25 38,24.8 38,24.5 C38,24.2 37.7445378,24 37.3613445,24 Z" id="Path"></path>
            <circle id="Oval" cx="11.5" cy="8.5" r="1"></circle>
            <circle id="Oval" cx="16.5" cy="8.5" r="1"></circle>
            <circle id="Oval" cx="21.5" cy="8.5" r="1"></circle>
            <circle id="Oval" cx="16.5" cy="4.5" r="1"></circle>
            <circle id="Oval" cx="21.5" cy="4.5" r="1"></circle>
            <circle id="Oval" cx="26.5" cy="8.5" r="1"></circle>
            <circle id="Oval" cx="13.5" cy="6.5" r="1"></circle>
            <circle id="Oval" cx="18.5" cy="6.5" r="1"></circle>
            <circle id="Oval" cx="24.5" cy="6.5" r="1"></circle>
        </g>
    </g>
</svg>